# xmcd CD database file
#
# Track frame offsets:
#	150
#	12925
#	24982
#	39980
#	53175
#	67050
#	77882
#	88985
#	104495
#	117387
#	128625
#	143037
#	156602
#	169812
#	182637
#	198755
#	211185
#	229162
#	248560
#	265147
#
# Disc length: 3692 seconds
#
# Revision: 4
# Processed by: cddbd v1.5.2PL0 Copyright (c) Steve Scherf et al.
# Submitted via: jetAudio 5
#
DISCID=150e6a14
DTITLE=Ansambel bratov Avsenik - 40 let hitov 2
DYEAR=1900
DGENRE=Country
TTITLE0=Slovenski pozdravi
TTITLE1=Tam, kjer murke cveto
TTITLE2=Veter nosi pesem mojo
TTITLE3=Jej, jej, k'mam te ko glavo
TTITLE4=Breze v vetru
TTITLE5=Resje  ze cveti
TTITLE6=Drija drajsom polka
TTITLE7=Prehitro mimo je mladost
TTITLE8=Lisicka in Maricka
TTITLE9=Veselje klarinetov
TTITLE10=Ko mesec sveti
TTITLE11=Spomin na Zuerich
TTITLE12=Gremo na Pokljuko
TTITLE13=Lahovska polka
TTITLE14=Tam dalec preko morja
TTITLE15=Novoletni koledar
TTITLE16=Spilamo, plesemo in pojemo
TTITLE17=Ce bliznjega rad imas
TTITLE18=Grand prix polka
TTITLE19=Na Golici
EXTD=ID3G:   2
EXTT0=
EXTT1=
EXTT2=
EXTT3=
EXTT4=
EXTT5=
EXTT6=
EXTT7=
EXTT8=
EXTT9=
EXTT10=
EXTT11=
EXTT12=
EXTT13=
EXTT14=
EXTT15=
EXTT16=
EXTT17=
EXTT18=
EXTT19=
PLAYORDER=
